HIERARCHY
ROOT Hips
{
	OFFSET -0.001795 -0.223333 0.028219
	CHANNELS 6 Xposition Yposition Zposition Zrotation Yrotation Xrotation 
	JOINT LeftUpLeg
	{
		OFFSET 0.069520 -0.091406 -0.006815
		CHANNELS 3 Zrotation Yrotation Xrotation
		JOINT LeftLeg
		{
			OFFSET 0.034277 -0.375199 -0.004496
			CHANNELS 3 Zrotation Yrotation Xrotation
			JOINT LeftFoot
			{
				OFFSET -0.013596 -0.397961 -0.043693
				CHANNELS 3 Zrotation Yrotation Xrotation
				JOINT LeftToe
				{
					OFFSET 0.026358 -0.055791 0.119288
					CHANNELS 3 Zrotation Yrotation Xrotation
					End Site
					{
						OFFSET 0.000000 0.000000 0.000000
					}
				}
			}
		}
	}
	JOINT RightUpLeg
	{
		OFFSET -0.067670 -0.090522 -0.004320
		CHANNELS 3 Zrotation Yrotation Xrotation
		JOINT RightLeg
		{
			OFFSET -0.038290 -0.382569 -0.008850
			CHANNELS 3 Zrotation Yrotation Xrotation
			JOINT RightFoot
			{
				OFFSET 0.015774 -0.398415 -0.042312
				CHANNELS 3 Zrotation Yrotation Xrotation
				JOINT RightToe
				{
					OFFSET -0.025372 -0.048144 0.123348
					CHANNELS 3 Zrotation Yrotation Xrotation
					End Site
					{
						OFFSET 0.000000 0.000000 0.000000
					}
				}
			}
		}
	}
	JOINT Spine
	{
		OFFSET -0.002533 0.108963 -0.026696
		CHANNELS 3 Zrotation Yrotation Xrotation
		JOINT Spine1
		{
			OFFSET 0.005487 0.135180 0.001092
			CHANNELS 3 Zrotation Yrotation Xrotation
			JOINT Spine2
			{
				OFFSET 0.001457 0.052922 0.025425
				CHANNELS 3 Zrotation Yrotation Xrotation
				JOINT Neck
				{
					OFFSET -0.002778 0.213870 -0.042857
					CHANNELS 3 Zrotation Yrotation Xrotation
					JOINT Head
					{
						OFFSET 0.005152 0.064970 0.051349
						CHANNELS 3 Zrotation Yrotation Xrotation
						End Site
						{
							OFFSET 0.000000 0.000000 0.000000
						}
					}
				}
				JOINT LeftShoulder
				{
					OFFSET 0.078845 0.121749 -0.034090
					CHANNELS 3 Zrotation Yrotation Xrotation
					JOINT LeftArm
					{
						OFFSET 0.090977 0.030469 -0.008868
						CHANNELS 3 Zrotation Yrotation Xrotation
						JOINT LeftForeArm
						{
							OFFSET 0.259612 -0.012772 -0.027456
							CHANNELS 3 Zrotation Yrotation Xrotation
							JOINT LeftHand
							{
								OFFSET 0.249234 0.008986 -0.001171
								CHANNELS 3 Zrotation Yrotation Xrotation
								End Site
								{
									OFFSET 0.000000 0.000000 0.000000
								}
							}
						}
					}
				}
				JOINT RightShoulder
				{
					OFFSET -0.081759 0.118833 -0.038615
					CHANNELS 3 Zrotation Yrotation Xrotation
					JOINT RightArm
					{
						OFFSET -0.096012 0.032551 -0.009143
						CHANNELS 3 Zrotation Yrotation Xrotation
						JOINT RightForeArm
						{
							OFFSET -0.253742 -0.013329 -0.021401
							CHANNELS 3 Zrotation Yrotation Xrotation
							JOINT RightHand
							{
								OFFSET -0.255298 0.007772 -0.005559
								CHANNELS 3 Zrotation Yrotation Xrotation
								End Site
								{
									OFFSET 0.000000 0.000000 0.000000
								}
							}
						}
					}
				}
			}
		}
	}
}
MOTION
Frames: 17
Frame Time: 0.050000
0.000000 0.715781 0.000000 2.057898 -1.051449 3.700877 7.267344 -1.295470 -49.727579 -4.903875 2.046105 75.698138 5.464208 -2.182057 -29.437751 0.000000 0.000000 0.000000 -9.871642 0.732748 -25.246919 0.373094 4.101722 77.913978 -6.346704 1.771131 -34.149559 0.000000 0.000000 0.000000 -3.773257 -0.013200 16.654115 -1.055329 0.588937 -6.535837 3.069368 -0.267445 7.941789 -5.005943 4.019940 -23.063758 0.000000 0.000000 0.000000 -3.243625 -9.951820 3.581160 -15.587666 -36.814085 1.307322 116.856582 -29.651577 -41.438393 0.000000 0.000000 0.000000 11.127169 10.448316 3.628731 60.524483 10.832951 -0.677957 -4.217196 50.858243 -0.083892 0.000000 0.000000 0.000000 
0.000618 0.708107 0.002767 1.552125 -0.715540 3.967427 6.958447 -1.588592 -52.341672 -4.112208 1.172007 80.277600 3.711482 -5.588119 -24.662736 0.000000 0.000000 0.000000 -8.226803 1.066334 -26.633698 -1.183305 5.765162 80.704136 -6.210487 0.139908 -32.718129 0.000000 0.000000 0.000000 -3.542781 -0.061658 16.848093 -2.077492 1.011543 -7.269559 4.284052 -0.132658 7.917334 -7.390402 5.261232 -24.006841 0.000000 0.000000 0.000000 -2.756164 -9.475714 3.386417 -16.030862 -40.804432 1.825799 120.119536 -28.190827 -41.625148 0.000000 0.000000 0.000000 10.107211 10.322562 3.584286 60.000761 8.376361 -1.932839 -0.554460 54.106011 1.715507 0.000000 0.000000 0.000000 
0.000798 0.700967 0.004661 1.507316 0.555639 3.678820 6.635670 -2.084984 -52.588962 -3.842375 0.290093 82.916897 4.826265 -6.978007 -30.327535 0.000000 0.000000 0.000000 -8.931369 0.803132 -25.946463 0.085639 3.744095 81.912620 -6.678775 -1.102152 -34.965066 0.000000 0.000000 0.000000 -3.484858 -0.110123 16.560791 -0.342252 0.298463 -5.443494 2.926956 -0.976539 6.592812 -9.031407 6.107612 -23.725246 0.000000 0.000000 0.000000 -2.158024 -10.218821 3.628836 -13.813426 -41.874873 1.400633 117.103105 -27.666281 -38.887683 0.000000 0.000000 0.000000 12.110957 11.349050 4.051591 57.801720 9.045157 -1.427161 -3.352096 53.604066 0.264967 0.000000 0.000000 0.000000 
0.000763 0.698572 0.005862 2.057224 0.735039 3.833972 5.156672 -2.860042 -53.130758 -2.624205 -1.166922 84.008869 4.560004 -8.719274 -30.485804 0.000000 0.000000 0.000000 -8.777078 0.815401 -25.565356 -0.850304 4.757187 83.185802 -5.990233 -0.572031 -31.232116 0.000000 0.000000 0.000000 -3.979289 -0.023433 16.064224 -0.825976 0.508686 -5.736659 3.422820 -1.886439 6.821117 -10.364085 6.756773 -22.901325 0.000000 0.000000 0.000000 -0.998813 -9.778674 3.475855 -13.428511 -42.646966 1.413828 115.141775 -26.858441 -35.928845 0.000000 0.000000 0.000000 10.480430 11.751739 4.067339 58.434765 9.228517 -1.405763 -2.879037 54.765834 0.319399 0.000000 0.000000 0.000000 
0.000457 0.697011 0.006669 1.959787 0.776552 3.796145 4.080317 -3.368061 -52.910954 -1.269084 -2.774253 84.810202 4.848206 -9.009787 -31.763850 0.000000 0.000000 0.000000 -9.053837 0.748896 -25.074490 -0.650831 4.465920 82.728978 -6.266499 -2.457297 -31.695031 0.000000 0.000000 0.000000 -4.268497 0.024074 15.524404 -0.819566 0.491418 -4.970856 3.346292 -1.977129 6.353325 -10.434719 6.768361 -23.020548 0.000000 0.000000 0.000000 -0.774943 -10.540032 3.741892 -10.491101 -42.903400 0.611613 116.079977 -26.742166 -36.444988 0.000000 0.000000 0.000000 11.005310 12.353938 4.323124 57.850830 9.873472 -1.025180 -5.298280 54.422801 -0.929225 0.000000 0.000000 0.000000 
0.000020 0.695504 0.007068 1.534299 1.100730 3.800619 2.914258 -3.985114 -52.692987 -0.021237 -4.385703 84.795901 5.191722 -9.347071 -33.228500 0.000000 0.000000 0.000000 -8.864971 0.754102 -24.580417 -0.832753 4.444349 82.768883 -6.187968 -2.642356 -31.107342 0.000000 0.000000 0.000000 -4.223835 0.007023 15.451533 -0.528367 0.358653 -4.394624 3.697289 -2.248014 6.370362 -10.883737 6.958864 -23.475028 0.000000 0.000000 0.000000 -0.723877 -10.540229 3.748018 -8.440878 -43.489554 0.044880 117.364723 -25.937796 -36.109549 0.000000 0.000000 0.000000 11.164398 13.169940 4.672184 57.287976 10.575304 -0.679549 -8.478844 54.512297 -2.553159 0.000000 0.000000 0.000000 
-0.000561 0.694779 0.007248 1.630829 1.356634 3.654683 2.217118 -4.348284 -52.371944 0.509370 -5.148826 85.010625 5.361877 -9.202567 -33.770311 0.000000 0.000000 0.000000 -8.913747 0.725245 -24.666842 -0.869331 4.392338 83.472089 -5.918228 -2.145009 -29.775506 0.000000 0.000000 0.000000 -4.537724 0.048229 15.512122 -0.326078 0.284636 -4.731486 3.779441 -1.995942 6.753388 -10.742846 6.950303 -23.283242 0.000000 0.000000 0.000000 -0.774917 -10.533791 3.731504 -5.733758 -44.253068 -0.799975 116.499726 -24.264343 -33.472479 0.000000 0.000000 0.000000 11.452724 13.175507 4.755590 56.486469 10.910304 -0.552781 -9.122253 55.114659 -2.816783 0.000000 0.000000 0.000000 
-0.000883 0.692709 0.007309 1.624480 1.560588 3.617387 1.760477 -4.634252 -52.574741 0.555252 -5.373953 85.644266 5.408137 -8.872381 -33.755182 0.000000 0.000000 0.000000 -8.679936 0.756586 -24.807271 -0.947056 4.420732 84.352974 -5.672942 -2.834365 -27.648606 0.000000 0.000000 0.000000 -4.849819 0.090434 15.375140 0.185599 0.063848 -4.547640 3.966929 -1.630251 6.631436 -10.888691 7.076279 -23.163273 0.000000 0.000000 0.000000 -0.749713 -10.309311 3.630666 -4.033757 -44.985313 -1.360294 116.369324 -22.235082 -30.763360 0.000000 0.000000 0.000000 11.277947 13.344138 4.907306 56.337747 11.368235 -0.320986 -9.856162 54.310859 -3.037458 0.000000 0.000000 0.000000 
-0.000954 0.690516 0.007326 1.712637 1.042333 3.635094 1.864073 -4.476497 -52.800767 0.398972 -4.984758 86.280019 5.402543 -8.699774 -33.681291 0.000000 0.000000 0.000000 -8.918192 0.754873 -25.152491 -0.732664 4.566749 84.842851 -5.643424 -3.787033 -26.500125 0.000000 0.000000 0.000000 -4.991308 0.126708 15.106548 0.161962 0.067832 -4.542431 4.164633 -1.019778 6.732965 -10.793110 7.073457 -22.960598 0.000000 0.000000 0.000000 -0.942547 -10.118926 3.556802 -2.404815 -45.341219 -1.919242 117.081173 -21.031097 -29.613626 0.000000 0.000000 0.000000 11.826993 13.466310 5.042223 55.522046 11.842908 -0.109590 -10.212682 53.097782 -3.058308 0.000000 0.000000 0.000000 
-0.000834 0.688496 0.007464 1.718115 0.847248 3.687962 1.735070 -4.491160 -52.828264 0.554523 -5.091751 86.486091 5.655902 -8.217989 -34.401151 0.000000 0.000000 0.000000 -9.133957 0.730262 -25.207694 -0.581560 4.530992 84.970539 -5.655556 -4.776066 -25.506577 0.000000 0.000000 0.000000 -5.117918 0.151632 14.792956 0.349807 -0.005354 -4.807961 4.554579 -0.723563 7.075075 -11.143636 7.276520 -23.042691 0.000000 0.000000 0.000000 -0.912264 -9.490397 3.327682 -1.942420 -45.894829 -2.119332 117.473804 -19.997068 -28.365408 0.000000 0.000000 0.000000 11.286989 13.854535 5.235823 55.699560 12.151444 0.003607 -10.600411 51.722779 -3.102166 0.000000 0.000000 0.000000 
-0.000800 0.687729 0.007875 1.685804 0.483121 3.371629 2.018261 -4.246853 -52.615900 0.470324 -4.842144 86.894846 5.487263 -8.364069 -33.856277 0.000000 0.000000 0.000000 -9.153844 0.743648 -24.986021 -0.286367 4.438428 84.725897 -5.862734 -5.390791 -26.296728 0.000000 0.000000 0.000000 -5.040210 0.142845 14.587343 0.417704 -0.041806 -4.727957 4.791208 -0.306274 6.958138 -10.867510 7.146480 -23.072636 0.000000 0.000000 0.000000 -0.564921 -9.155158 3.190192 -2.291720 -44.625695 -1.957947 117.395831 -19.832807 -28.215222 0.000000 0.000000 0.000000 11.647069 13.671070 5.190074 55.152198 12.282328 0.066088 -10.399016 50.400997 -2.892110 0.000000 0.000000 0.000000 
-0.000973 0.686983 0.008718 1.709461 0.074397 3.203707 2.304724 -3.972636 -52.202303 0.441188 -4.584279 86.846487 5.570811 -8.024584 -34.012221 0.000000 0.000000 0.000000 -9.230073 0.750198 -24.679488 0.334693 3.993945 84.405397 -6.093912 -6.265513 -27.039216 0.000000 0.000000 0.000000 -4.888886 0.127018 14.266161 0.204472 0.046097 -4.821409 5.152304 -0.133620 6.971313 -10.939030 7.163884 -23.222827 0.000000 0.000000 0.000000 -0.180619 -8.570688 2.980153 -3.763284 -43.753567 -1.466857 117.492561 -21.021005 -29.932384 0.000000 0.000000 0.000000 11.496765 12.939133 4.818202 55.712793 11.984292 -0.066909 -9.156654 49.712009 -2.308331 0.000000 0.000000 0.000000 
-0.001275 0.686747 0.009646 1.568796 -0.146892 3.185572 2.537243 -3.784184 -51.903164 0.615673 -4.659862 86.672210 5.583800 -8.047605 -34.088130 0.000000 0.000000 0.000000 -9.072547 0.786467 -24.228475 0.656036 3.738905 83.874956 -6.332740 -7.149479 -27.941344 0.000000 0.000000 0.000000 -4.627092 0.093321 13.940597 0.227329 0.034132 -4.829953 5.204610 -0.162920 6.725897 -10.583306 6.990999 -22.570716 0.000000 0.000000 0.000000 -0.100433 -8.383089 2.917205 -4.730517 -42.034603 -1.131652 117.690889 -22.077107 -31.495030 0.000000 0.000000 0.000000 12.158013 12.841928 4.752919 55.663627 11.128450 -0.435700 -9.532132 49.424765 -2.504609 0.000000 0.000000 0.000000 
-0.001583 0.686423 0.010369 1.539640 -0.497003 3.138002 2.869714 -3.556009 -52.109268 0.365494 -4.198562 86.926640 5.457744 -7.175937 -33.071740 0.000000 0.000000 0.000000 -9.162724 0.792615 -24.189463 1.037643 3.542590 83.862957 -6.389636 -7.483533 -28.006949 0.000000 0.000000 0.000000 -4.353355 0.061312 13.814364 0.009914 0.126716 -5.023713 5.248444 0.006015 6.810729 -10.584817 6.965616 -22.993396 0.000000 0.000000 0.000000 -0.196551 -7.925952 2.758551 -5.978175 -41.285907 -0.784868 118.170147 -23.767705 -34.222197 0.000000 0.000000 0.000000 12.444168 11.834876 4.277598 55.863865 10.097736 -0.925780 -8.201380 49.965005 -1.942139 0.000000 0.000000 0.000000 
-0.001747 0.686231 0.010807 1.545285 -0.659346 3.003526 2.753231 -3.568540 -52.066975 0.433043 -4.211333 87.098454 5.506415 -6.359139 -32.745444 0.000000 0.000000 0.000000 -9.211441 0.783288 -23.777210 1.335362 3.326119 83.837047 -6.418425 -7.902608 -27.730702 0.000000 0.000000 0.000000 -3.963425 0.007963 13.726737 -0.237470 0.229349 -5.067501 5.001665 -0.056936 6.968626 -10.492084 6.895042 -23.289261 0.000000 0.000000 0.000000 -0.227318 -8.135237 2.833719 -7.076330 -40.563391 -0.491908 118.433588 -24.407928 -35.276969 0.000000 0.000000 0.000000 12.559722 11.326780 4.020946 56.407120 9.091403 -1.420887 -7.835260 50.010370 -1.788351 0.000000 0.000000 0.000000 
-0.001728 0.686155 0.011153 1.473426 -0.635110 2.880797 2.745685 -3.587148 -52.191409 0.599176 -4.430960 87.198238 5.409246 -5.789555 -31.945250 0.000000 0.000000 0.000000 -9.366018 0.743350 -23.370107 1.604596 3.011109 83.743259 -6.292919 -7.537002 -27.097583 0.000000 0.000000 0.000000 -3.713117 -0.029585 13.765632 -0.397061 0.295230 -4.991697 4.956936 -0.141464 6.844376 -10.456475 6.853983 -23.506225 0.000000 0.000000 0.000000 -0.575537 -8.130341 2.837021 -8.152593 -40.577470 -0.198230 118.641283 -25.024230 -36.260198 0.000000 0.000000 0.000000 12.729623 10.900747 3.800379 56.359365 8.169493 -1.844510 -7.198301 50.546542 -1.545645 0.000000 0.000000 0.000000 
-0.001578 0.685629 0.011631 1.577037 -0.832918 2.893165 2.733089 -3.558300 -52.394100 0.496208 -4.205854 87.200561 5.383228 -5.263343 -31.457998 0.000000 0.000000 0.000000 -9.915696 0.656629 -23.027544 1.917583 2.785724 83.657607 -6.281650 -7.493142 -27.048274 0.000000 0.000000 0.000000 -3.591400 -0.040317 13.563359 -0.581600 0.367053 -4.785804 4.771008 -0.121170 6.803219 -10.370142 6.786401 -23.758706 0.000000 0.000000 0.000000 -0.599033 -8.118536 2.834409 -8.960251 -40.605604 0.023654 118.574854 -25.979877 -37.559885 0.000000 0.000000 0.000000 12.985278 10.408562 3.551863 56.483261 7.360906 -2.223032 -6.554549 50.332465 -1.262991 0.000000 0.000000 0.000000 
